<svg width="21" height="21" viewBox="0 0 21 21" fill="none" xmlns="http://www.w3.org/2000/svg">
<path d="M10.4468 0.920654C4.92679 0.920654 0.456787 5.40065 0.456787 10.9207C0.456787 16.4407 4.92679 20.9207 10.4468 20.9207C15.9768 20.9207 20.4568 16.4407 20.4568 10.9207C20.4568 5.40065 15.9768 0.920654 10.4468 0.920654ZM10.4568 18.9207C6.03679 18.9207 2.45679 15.3407 2.45679 10.9207C2.45679 6.50065 6.03679 2.92065 10.4568 2.92065C14.8768 2.92065 18.4568 6.50065 18.4568 10.9207C18.4568 15.3407 14.8768 18.9207 10.4568 18.9207Z" fill="#FF0000"/>
<path d="M10.9568 5.92065H9.45679V11.9207L14.7068 15.0707L15.4568 13.8407L10.9568 11.1707V5.92065Z" fill="#FF0000"/>
</svg>
