<svg width="18" height="10" viewBox="0 0 18 10" fill="none" xmlns="http://www.w3.org/2000/svg">
<path d="M2.11855 4.66113C2.11855 3.16488 3.3348 1.94863 4.83105 1.94863H8.33105V0.286133H4.83105C2.41605 0.286133 0.456055 2.24613 0.456055 4.66113C0.456055 7.07613 2.41605 9.03613 4.83105 9.03613H8.33105V7.37363H4.83105C3.3348 7.37363 2.11855 6.15738 2.11855 4.66113ZM5.70605 5.53613H12.7061V3.78613H5.70605V5.53613ZM13.5811 0.286133H10.0811V1.94863H13.5811C15.0773 1.94863 16.2936 3.16488 16.2936 4.66113C16.2936 6.15738 15.0773 7.37363 13.5811 7.37363H10.0811V9.03613H13.5811C15.9961 9.03613 17.9561 7.07613 17.9561 4.66113C17.9561 2.24613 15.9961 0.286133 13.5811 0.286133Z" fill="#FF0000"/>
</svg>
