<svg width="2313" height="239" viewBox="0 0 2313 239" fill="none" xmlns="http://www.w3.org/2000/svg">
<path d="M0 0V238.56H25.62V28.56H86.94V238.56H184.8V72.66H111.3V28.56H210.42V238.56H314.16V72.66H239.4V0H0Z" fill="black"/>
<path d="M628.989 163.38H365.229V106.26H628.989V2.1H412.269V76.86H339.609V238.56H628.989V163.38Z" fill="black"/>
<path d="M739.922 166.74V238.56H1033.08V106.68H824.342V77.28H956.642V2.1H739.922V126.84H956.222V166.74H739.922Z" fill="black"/>
<path d="M1347.58 163.38H1083.82V106.26H1347.58V2.1H1130.86V76.86H1058.2V238.56H1347.58V163.38Z" fill="black"/>
<path d="M1449.65 126.84H1504.25V238.56H1666.37V218.4H1581.11V126.84L1665.95 126.42V0H1372.79V238.56H1449.65V126.84ZM1403.87 76.86H1581.95V106.68L1403.87 106.26V76.86Z" fill="black"/>
<path d="M1791.06 163.8H2003.16V2.1H1689.84V238.56H1791.06V163.8ZM1715.04 74.34H1896.06V114.24H1715.04V74.34Z" fill="black"/>
<path d="M2133.54 238.56H2133.96H2210.82V106.68H2158.32V77.28H2312.04V2.1H2032.32V76.86H2133.54V238.56Z" fill="black"/>
</svg>
