<svg width="1060" height="182" viewBox="0 0 1060 182" fill="none" xmlns="http://www.w3.org/2000/svg">
<path d="M1059.43 6.70069C1059.69 13.9158 1059.69 21.1309 1059.43 28.346C1059.43 35.5611 1060.46 34.2727 1053.76 39.6841C1046.29 45.6108 1038.82 51.2798 1031.35 57.2065C1031.35 59.2679 1031.35 61.3294 1031.35 63.1332C1031.6 84.7785 1031.86 106.424 1031.86 128.069C1031.86 137.088 1031.6 146.107 1031.35 155.126C1031.35 156.93 1031.09 158.733 1030.83 160.537C1030.83 162.856 1029.54 164.145 1027.74 165.433C1021.04 170.071 1014.34 174.71 1007.64 179.348C1006.09 180.379 1004.29 181.409 1002.23 181.409C992.178 181.667 982.129 182.44 972.337 181.152C971.564 181.152 970.791 181.152 970.018 180.894C968.472 180.636 967.698 179.863 967.441 178.06C967.183 177.029 967.183 176.256 967.183 175.225C967.183 167.752 967.183 160.022 967.183 152.549C967.183 151.776 967.183 151.003 967.183 150.23C967.956 142.757 967.956 135.284 967.698 127.811C967.441 123.173 966.925 118.535 966.925 113.897C966.668 99.9818 966.41 85.8092 966.41 71.8944C966.41 67.2561 966.41 62.6178 966.152 57.9795C966.152 57.2065 965.895 56.1757 965.895 55.145C955.845 54.372 946.053 55.4027 936.519 55.145C936.004 54.1143 935.488 53.3412 935.488 52.5682C935.488 44.8377 935.488 36.8495 935.488 28.8614C935.23 25.2538 937.034 22.677 939.869 20.6156C946.826 15.4619 953.268 10.3082 959.968 4.8969C962.029 3.35081 964.349 2.83545 966.668 2.83545C987.54 0.77399 1008.15 -0.256742 1029.03 0.77399C1037.02 1.03167 1045 1.54703 1052.99 2.0624C1054.02 2.0624 1055.31 2.32008 1056.6 2.57776C1058.92 3.35081 1059.43 4.38155 1059.43 6.70069ZM940.126 25.7692C941.93 26.5422 943.476 26.0269 944.765 25.2538C949.145 22.677 953.784 19.8425 958.422 17.008C958.937 16.7503 959.195 15.9773 959.453 15.2042C956.103 15.2042 953.784 15.7196 950.691 18.0387C947.342 20.3579 942.703 21.6463 940.126 25.7692ZM948.372 46.3838C948.63 46.6415 948.888 46.6415 949.403 46.8992C949.403 46.6415 949.661 46.3838 949.661 46.1261C949.403 46.1261 949.145 46.1261 948.888 46.1261C948.63 46.1261 948.63 46.3838 948.372 46.3838ZM949.918 46.1261C954.557 44.58 959.453 40.9725 961.772 37.6226C956.876 39.6841 953.011 42.0032 949.918 45.6108C949.661 45.6108 949.918 45.8684 949.918 46.1261ZM980.84 171.36C987.025 169.556 991.148 166.979 992.436 163.114C987.54 164.66 983.933 167.495 980.583 171.102C980.325 171.36 979.81 171.618 979.552 171.875L979.81 172.133C980.325 171.875 980.583 171.618 980.84 171.36ZM991.921 101.786C993.209 96.3742 993.209 76.0173 992.178 69.5752C991.921 71.8944 991.663 73.1828 991.663 74.7289C991.405 77.048 991.148 79.3672 990.632 81.944C990.632 81.944 990.375 82.2017 989.859 82.717C989.602 80.9133 989.601 79.6248 989.344 78.0788C988.571 79.3672 988.313 80.6556 987.798 81.6863C985.994 81.4286 987.025 84.0055 985.479 84.2631C985.221 82.9747 985.221 82.2017 984.963 81.1709C983.159 81.944 981.871 82.717 980.325 83.4901C979.294 82.9747 979.552 80.9133 978.006 80.6556C977.748 81.1709 977.49 81.6863 977.49 82.2017C977.49 84.2631 976.975 85.8092 974.656 85.5515C974.141 87.613 971.306 86.3246 970.791 88.6437C972.852 92.509 971.306 97.1473 973.11 102.043C973.883 100.497 974.141 99.4664 974.914 97.9203C975.429 102.559 976.202 106.424 976.717 110.289C976.975 110.289 976.975 110.289 977.233 110.289C977.49 105.908 977.49 101.528 977.748 97.1473C980.325 98.4357 979.037 95.3435 980.583 95.6012C981.098 101.27 981.613 106.939 982.129 112.351C982.902 110.547 982.902 108.485 983.159 106.682C983.159 103.589 983.159 100.497 983.159 97.4049C983.159 97.1473 983.675 96.8896 983.675 96.6319C984.19 97.1473 984.448 97.9203 984.963 98.951C985.221 97.6626 985.479 96.8896 985.994 95.6012C986.767 97.1473 987.282 98.178 988.055 99.2087C988.828 98.178 989.601 97.405 990.117 96.3742C990.632 95.6012 990.89 94.5704 991.663 93.0243C991.663 96.3742 991.921 99.2087 991.921 101.786ZM1055.05 31.9536V6.70069C1025.16 3.09313 995.271 3.86617 965.122 7.21605C965.122 15.7196 965.122 24.2231 965.637 32.7266C966.152 32.9843 966.41 33.242 966.41 33.242C974.141 33.242 981.871 33.242 989.602 33.4997C991.405 33.4997 993.209 33.242 995.271 34.7881C995.528 36.3342 995.786 38.3956 996.044 40.4571C996.301 46.8992 996.044 53.5989 996.559 60.2987C997.847 73.1828 997.59 86.0669 997.332 98.951C997.074 111.577 996.817 123.946 996.559 136.573C996.301 141.984 996.301 147.653 996.301 153.064C996.301 154.868 996.559 156.672 996.817 158.733C1002.49 158.733 1007.9 158.991 1013.05 158.991C1017.43 158.991 1021.55 158.991 1026.45 158.991C1026.97 153.064 1026.97 147.911 1026.97 143.015C1026.97 126.008 1027.22 109.258 1027.22 92.509C1027.22 75.5019 1026.71 58.2372 1026.45 40.9725C1026.45 34.2727 1027.48 33.242 1033.92 32.9843C1035.47 32.9843 1037.02 32.9843 1038.3 32.9843C1042.68 32.9843 1046.81 32.9843 1051.19 32.7266C1052.48 32.7266 1053.51 32.4689 1055.05 31.9536Z" fill="white"/>
<path d="M891.463 36.8485C891.72 48.4442 891.72 59.7822 891.978 71.1203C891.978 75.7586 891.978 80.3968 891.72 85.0351C891.72 87.0966 891.463 89.1581 891.463 90.9618C886.309 93.0233 871.621 93.7963 864.148 92.2502C863.89 91.4772 863.375 90.4465 863.375 89.4157C863.375 71.8933 863.633 54.3709 863.891 36.8485C863.891 35.8178 864.148 34.5293 864.406 33.7563C866.467 31.9525 868.786 31.9525 870.848 32.2102C876.259 32.9833 881.413 32.7256 886.824 32.4679C890.174 32.2102 891.463 33.2409 891.463 36.8485ZM874.456 47.9288C878.578 45.6097 882.701 43.2906 885.278 38.91C884.763 38.6523 884.247 38.3946 883.99 38.6523C880.125 40.9714 877.032 44.3213 874.456 47.9288ZM924.961 117.761C925.219 120.595 924.188 122.914 922.127 124.718C917.746 128.326 913.366 132.191 909.243 135.799C907.954 136.829 906.408 137.86 905.377 139.148C902.543 141.468 899.708 142.756 895.843 142.756C887.082 142.756 878.578 143.014 869.817 143.271C869.302 143.271 868.786 143.529 868.271 143.787C867.498 146.106 868.013 148.167 867.756 150.487C867.756 151.775 867.756 153.321 867.756 154.867C868.271 159.248 866.21 162.34 863.375 164.917C858.222 169.297 853.326 173.678 848.43 178.059C846.11 180.378 843.534 181.408 840.441 181.408C833.226 181.408 826.269 181.666 819.311 181.666C815.446 181.924 811.581 181.666 807.716 181.666C804.366 181.408 803.593 180.378 803.335 177.028C803.077 175.224 803.077 173.42 803.335 171.616C803.593 159.763 804.366 147.91 804.366 136.056C804.881 121.368 805.397 106.68 804.881 91.9926C804.366 77.3047 804.624 62.8744 804.624 48.1865C804.881 40.9714 805.397 33.4986 805.654 26.0258C805.654 22.6759 807.2 20.0991 809.777 18.2954C812.869 15.9762 815.962 13.9147 818.796 11.8533C821.631 9.79181 824.723 7.73037 827.3 5.6689C830.392 3.09208 833.484 2.06135 837.349 2.06135C863.891 2.06135 890.174 2.06135 916.715 2.06135C918.777 2.06135 921.096 1.80367 923.415 2.8344C924.188 5.15353 923.931 7.73037 923.931 10.0495C924.188 18.553 924.188 26.7989 924.446 35.3024C924.704 60.2976 924.704 85.2928 924.961 110.03C924.961 112.607 924.961 115.184 924.961 117.761ZM829.103 10.0495C828.588 10.0495 828.33 10.3072 828.073 10.5649C828.33 10.5649 828.588 11.0802 828.846 11.0802C829.103 11.0802 829.361 10.8225 829.619 10.5649C829.361 10.3072 829.103 10.0495 829.103 10.0495ZM810.035 23.449C810.035 23.449 810.293 23.9644 810.293 24.7374C815.189 23.1913 818.796 19.8414 822.919 17.0069C823.692 16.2339 824.723 15.7185 824.207 13.6571C822.919 14.1724 821.631 14.1724 820.858 14.9455C817.25 17.5223 813.642 20.3568 810.035 23.449ZM817.508 170.328C822.919 168.782 826.269 166.721 828.33 162.855C824.207 164.144 821.115 167.236 817.508 170.328ZM828.33 95.6001C829.619 95.0847 829.619 94.3117 829.619 93.5387C829.619 88.9004 829.619 84.2621 829.619 79.1084C828.846 80.1392 828.588 80.6545 827.815 81.6853C827.815 80.1392 827.815 79.3661 827.815 78.3354C827.815 77.5623 827.557 76.5316 827.557 75.7586C826.784 75.5009 826.269 75.5009 825.754 75.2432C825.496 72.924 825.238 70.3472 824.98 68.0281C824.98 67.5127 824.207 67.255 823.692 66.482C822.146 68.8011 823.177 71.6356 821.373 73.4394C820.085 72.6664 819.054 71.6356 819.054 69.8319C818.796 66.9974 818.538 64.1628 818.281 60.813C818.023 63.3898 817.765 65.1936 817.508 67.255C817.508 67.5127 817.25 67.5127 816.992 67.7704C816.735 67.255 816.219 66.7397 815.962 65.9666C814.931 66.9973 815.704 68.8011 813.9 69.8319C813.642 62.8744 813.127 56.4324 812.869 49.9903H812.612C812.354 52.0518 812.354 53.8555 812.096 55.917C811.839 60.0399 811.323 64.1628 811.066 68.5434C810.808 69.3165 811.066 70.6049 810.55 71.1203C808.489 72.924 809.004 75.2432 809.004 77.3046C809.004 80.6545 809.262 84.0044 809.004 87.3543C809.004 91.9926 809.262 96.6309 811.839 101.269C812.096 99.4654 812.354 97.9193 812.612 95.8578C813.127 97.4039 813.385 98.1769 813.9 99.4654C814.415 98.4346 814.673 97.9193 815.189 97.1462H818.538C818.796 99.4654 819.054 101.269 819.054 103.331C820.858 102.3 822.146 101.527 821.888 99.4654C821.888 97.9193 822.146 96.6308 822.404 95.0847C822.404 95.0847 822.661 95.0848 822.919 95.3424C823.177 98.4346 823.434 101.527 823.692 104.877C823.692 104.877 823.692 104.877 823.95 104.877C824.207 102.3 824.465 99.723 824.723 97.1462C825.238 97.9193 825.238 98.95 825.496 99.723C825.754 100.496 825.238 102.042 827.042 102.3C827.3 100.496 827.3 98.95 827.557 97.4039C827.557 96.6309 828.073 95.6001 828.33 95.6001ZM892.236 119.822C901.77 119.565 911.046 119.822 920.838 118.792C920.838 81.1699 920.581 43.8059 920.323 5.6689C917.231 5.6689 914.912 5.6689 912.593 5.6689C903.831 5.92658 894.812 6.18426 886.051 6.18426C870.59 6.44195 855.129 6.44195 839.668 6.44195C837.865 6.44195 836.318 5.92658 835.03 7.21499C834.257 56.4324 833.742 105.65 832.969 154.867C832.969 155.64 833.226 156.413 833.484 156.929C838.638 158.475 856.675 158.217 863.375 156.929C863.633 152.806 863.375 148.94 863.375 144.818C863.375 140.952 863.375 137.087 863.375 133.222C863.633 129.357 862.602 125.234 864.148 120.853C873.682 120.595 882.959 120.338 892.236 119.822Z" fill="white"/>
<path d="M746.78 53.5979C747.038 59.2669 747.038 64.6782 747.038 70.3472C747.038 71.1203 747.038 72.151 747.038 73.1817C746.78 74.4702 746.007 75.5009 744.461 75.5009C736.473 75.7586 728.742 75.5009 720.754 75.5009C720.496 75.5009 719.981 75.2432 719.208 74.9855C718.95 73.4394 718.693 72.151 718.693 70.8626C718.693 60.5553 718.693 49.9903 718.693 39.4253C718.95 38.3946 718.693 37.6216 718.95 36.5908C719.208 32.9833 719.723 32.2102 723.589 32.2102C729.773 31.9525 735.957 31.9525 742.399 32.2102C745.749 32.2102 746.522 33.2409 746.522 36.5908C746.78 42.2598 746.78 47.9288 746.78 53.5979ZM731.834 45.8674C738.277 43.2906 738.534 43.0329 740.08 38.91C736.473 40.9714 734.154 43.5483 731.834 45.8674ZM780.021 97.4039C780.536 102.3 778.733 105.907 774.094 108.227C773.321 108.742 772.291 109.257 770.745 110.288C772.806 111.834 774.352 113.123 775.898 114.153C778.217 115.699 779.248 117.761 779.248 120.338C779.506 122.141 779.506 124.203 779.506 126.264C779.763 136.314 779.763 146.364 780.021 156.156C780.021 159.763 778.99 162.082 776.156 164.144C770.487 168.009 764.818 172.39 759.149 176.512C755.799 179.089 752.191 180.635 748.068 180.635C740.08 180.893 732.092 181.408 724.104 181.666C720.496 181.924 719.208 180.378 718.95 176.77C718.95 175.739 718.95 174.709 718.693 173.42C718.435 171.617 718.177 170.07 717.92 168.009C716.889 168.524 716.374 168.524 715.858 168.782C712.251 172.132 708.385 175.482 704.778 178.574C703.232 179.862 701.686 180.893 699.882 180.893C696.79 181.151 693.955 181.666 690.863 181.666C682.875 181.666 674.629 181.666 666.641 181.666C665.61 181.666 664.322 181.924 663.291 181.666C661.229 181.666 660.199 180.893 660.199 178.574C660.199 175.224 660.199 171.616 659.941 168.267C659.168 155.898 658.91 143.529 659.168 131.16C659.168 113.38 658.91 95.6001 659.941 78.0777C660.199 71.6356 659.683 65.4513 659.683 59.2669C659.426 48.7019 659.426 38.1369 659.426 27.5719C659.426 24.7374 660.714 22.4183 663.033 20.6145C669.733 15.4608 676.69 10.8226 683.39 6.18427C686.225 4.12283 689.575 3.34977 693.182 3.09209C699.109 2.83441 704.778 1.80368 710.447 1.54599C719.723 1.28831 729.258 1.03063 738.534 0.772949C744.461 0.772949 750.388 1.28831 756.314 1.54599C762.241 1.80368 768.425 2.06136 774.61 2.31904C775.383 2.57672 776.414 2.57672 777.187 2.83441C778.733 3.34977 779.763 4.3805 779.763 6.18427C780.021 6.69965 780.021 7.21501 780.021 7.73038C780.021 19.8415 780.021 31.6949 780.021 43.8059C780.021 51.5364 780.536 59.5246 780.536 67.5127C780.536 74.7278 780.021 81.9429 780.021 89.1581C779.763 91.7349 779.763 94.5694 780.021 97.4039ZM681.844 12.6263C681.844 12.884 681.844 12.884 681.844 12.884C681.844 13.1417 682.102 13.1417 682.102 13.1417C682.102 12.884 682.102 12.884 681.844 12.6263ZM664.322 24.7374C664.064 24.7374 664.322 25.2528 664.322 25.5105C668.187 24.4797 676.433 19.0684 679.783 14.6878C673.856 17.0069 669.218 21.3875 664.322 24.7374ZM680.298 168.009C681.844 166.721 684.163 165.947 684.679 163.113C683.906 163.113 683.132 162.855 682.617 163.113C679.01 165.432 675.402 168.009 672.31 171.359C674.887 171.101 677.463 170.07 680.298 168.009ZM684.421 98.4346C684.421 88.6427 684.679 78.5931 684.679 68.8011C684.679 68.5435 684.679 68.2858 684.421 68.2858C684.421 68.2858 684.163 68.2858 683.905 68.2858C683.39 70.3472 682.617 72.6664 681.844 74.7278C681.329 75.7586 680.556 76.2739 679.525 77.3047C678.752 74.4702 678.236 72.151 677.721 69.5742C676.948 71.8933 676.948 74.2125 676.69 76.2739C676.69 76.5316 676.175 76.7893 675.917 77.047C675.402 76.2739 674.629 75.2432 673.856 74.2125C673.083 75.5009 672.31 76.2739 671.537 77.5623C669.475 73.6971 671.021 69.3165 669.475 64.9359C669.218 68.5435 668.96 71.378 668.702 74.2125C668.702 75.5009 668.187 76.5316 667.414 78.5931C667.156 73.4394 666.898 69.5742 666.641 65.709C665.868 68.8011 666.125 72.151 665.352 74.9855C663.806 80.1392 663.806 85.5505 663.806 90.7042C663.549 93.5387 664.322 96.1155 665.868 98.4346C666.383 99.2077 666.383 100.238 666.641 101.011C666.898 102.042 667.156 102.815 667.672 104.619C667.929 101.269 668.187 98.95 668.187 96.6309C668.96 98.6923 668.96 100.496 669.218 102.558C669.218 102.815 669.475 103.073 669.475 103.073C669.733 103.073 669.991 103.073 670.506 102.815C670.764 100.754 671.279 98.1769 671.794 95.8578H672.052C672.31 98.1769 672.567 100.496 672.825 102.815L673.083 103.073C673.341 102.042 673.083 100.754 673.598 99.9807C674.114 97.9193 675.144 96.3732 675.66 94.3117C676.433 92.5079 678.236 92.2503 680.04 91.4772C680.04 96.3732 680.298 101.011 680.556 106.68C680.813 103.846 681.071 101.527 681.329 99.4654C681.329 99.2077 681.586 98.95 681.844 98.6923C682.359 99.2077 682.359 100.496 683.905 99.9807C684.163 99.4654 684.421 98.95 684.421 98.4346ZM733.123 170.586C738.276 168.782 740.08 167.494 742.915 164.144C739.307 164.659 738.792 164.917 733.123 170.586ZM767.395 102.042C769.971 102.042 772.548 102.3 775.383 101.527C775.383 99.9807 775.641 98.6923 775.641 97.1462C775.641 93.5387 775.64 89.9311 775.898 86.0659C775.898 84.2621 776.156 82.2006 776.156 80.1392C776.156 63.6475 775.898 47.1558 775.898 30.9218C775.898 23.449 775.383 15.9762 776.414 8.76111C776.414 8.50342 776.156 7.98806 775.898 6.95733C771.002 6.44197 766.622 5.9266 761.983 5.66892C755.026 5.41124 748.068 5.66892 741.111 5.15354C730.546 4.63818 720.239 5.41124 709.931 6.18427C704.262 6.69965 698.336 6.95733 692.409 7.47269C691.378 7.73038 690.348 7.98806 689.317 8.24574C689.317 9.01879 689.059 9.53415 689.059 10.0495C689.575 24.9951 688.028 39.683 689.574 54.3709C689.832 55.4016 689.832 56.6901 689.832 57.7208C689.317 73.4394 689.059 89.4157 688.801 105.392C688.544 111.061 688.544 116.988 688.544 122.914C688.802 134.51 689.059 145.848 689.317 157.186C689.317 157.444 689.832 157.702 689.832 158.217C696.532 158.732 713.539 158.475 718.693 157.444C718.693 156.671 718.95 156.156 718.95 155.382C718.95 148.683 718.693 141.983 718.693 135.541C718.435 126.78 718.435 118.019 718.435 109.515C718.435 107.454 718.435 105.392 719.723 103.331C723.589 103.073 727.454 102.042 730.804 104.877C735.7 108.484 740.596 112.607 745.492 116.472C747.038 117.761 747.811 119.049 747.811 121.111C748.326 132.191 748.841 143.271 749.357 154.352C749.357 155.64 749.615 156.671 749.872 158.475C754.253 158.217 758.376 157.702 762.241 157.702C766.622 157.444 770.745 157.702 775.383 157.959C776.156 151.26 775.383 144.817 775.641 138.375C775.641 131.933 775.641 125.234 775.641 118.792C772.548 116.215 769.972 114.153 767.137 111.834C763.014 108.227 760.695 105.65 760.18 103.846C762.241 102.042 764.818 102.3 767.395 102.042Z" fill="white"/>
<path d="M640.114 154.867C640.371 158.99 639.083 162.34 635.475 164.917C628.776 169.813 621.818 174.966 615.118 180.12C613.83 181.151 612.284 181.408 610.48 181.408C603.523 181.408 596.823 181.408 589.865 181.408C579.558 181.666 568.993 181.666 558.428 181.666C546.833 181.924 535.237 181.408 523.641 180.635C522.095 180.378 520.807 180.12 519.518 179.862C518.23 177.543 518.745 175.482 518.745 173.42C518.745 134.252 518.745 95.3424 519.003 56.1746C519.003 48.4441 519.003 40.7137 519.003 32.7255C519.003 31.4371 519.26 29.891 519.26 28.3449C519.26 26.2834 520.291 24.7373 522.095 23.1913C529.31 17.7799 536.267 12.1109 543.483 6.44189C545.029 5.15346 546.575 4.38042 548.894 4.38042C575.951 4.12274 603.265 3.60737 630.322 3.09201C632.898 3.09201 635.475 2.83433 637.794 3.60737C638.052 4.12274 638.567 4.38042 638.567 4.6381C638.825 13.3993 639.083 22.1605 639.341 30.664C639.341 31.4371 639.341 32.2101 639.341 32.9832C638.825 35.56 638.052 37.8792 635.475 39.1676C633.156 40.1983 631.352 41.7444 629.291 43.0328C623.107 46.6404 616.922 50.2479 610.738 54.1132C607.903 55.6592 605.069 56.4323 601.977 56.69C596.05 56.69 590.123 57.2054 584.196 56.4323C583.423 56.4323 582.393 56.69 581.104 56.69C580.847 75.7585 581.104 94.5693 582.135 113.896C587.546 114.411 592.7 114.669 597.854 114.926C608.934 115.184 620.014 115.442 631.095 115.699C632.641 115.699 633.929 115.442 635.475 115.442C638.052 115.442 639.598 116.472 639.598 119.049C639.856 123.43 640.371 127.81 639.856 132.191C639.598 137.86 639.856 143.529 639.856 149.456C639.856 151.259 640.114 153.063 640.114 154.867ZM604.811 50.7633C605.326 51.021 605.842 50.2479 606.873 49.4749C605.842 48.9595 605.326 48.1865 605.069 48.1865C604.553 48.1865 603.78 48.9595 603.523 49.4749C603.523 49.9902 604.296 50.7633 604.811 50.7633ZM610.738 46.3827C615.634 44.8366 619.757 42.0021 623.622 38.6522C618.726 39.1676 612.542 42.5174 610.222 45.6096C610.48 45.8673 610.738 46.3827 610.738 46.3827ZM526.991 25.7681C526.218 26.5411 525.187 27.0565 525.445 28.6026C525.703 29.6333 527.249 29.6333 528.795 28.3449C533.175 24.995 537.298 21.3875 541.421 17.7799C541.937 17.5222 541.937 16.7492 542.194 15.4608C540.648 16.2338 539.617 16.4915 538.844 17.0069C534.979 19.8414 530.856 22.9336 526.991 25.7681ZM532.918 168.524C536.783 165.432 540.133 163.113 543.225 160.536C543.225 160.021 542.967 159.763 542.967 159.505C542.194 159.763 541.163 159.763 540.39 160.278C538.071 161.567 534.721 165.432 532.918 168.524ZM545.286 106.423C545.286 102.3 545.286 98.4346 545.286 94.5693C545.286 90.9618 545.286 87.0965 544.771 83.489C544.513 79.6237 545.544 75.7585 543.998 71.8932H539.102C538.329 73.4393 536.783 73.9547 534.721 73.1817C534.464 70.3472 534.206 67.5127 533.948 64.4205H533.691C533.433 66.4819 533.175 68.5434 532.918 70.8625C532.402 70.3472 531.887 70.0895 531.372 69.8318C531.114 72.1509 531.114 74.2124 530.856 76.5315C530.856 76.7892 530.341 76.7892 530.083 77.0469C529.825 76.0162 529.825 74.9854 529.568 73.9547C529.052 74.2124 528.795 74.2124 528.279 74.4701C528.022 73.697 527.506 72.924 527.249 71.8932C526.218 73.1817 527.249 74.9854 525.703 76.0162C525.703 73.1817 525.445 70.6048 525.187 68.028C524.156 70.8625 523.383 73.4394 523.383 76.2739C523.126 84.262 523.126 92.5079 523.126 100.496C523.126 101.269 522.868 102.3 524.156 102.815C524.414 101.011 524.672 99.2076 524.929 96.3731C525.96 98.4346 526.476 99.723 527.249 101.269C527.506 99.723 527.764 98.1769 528.279 95.8577C528.795 98.6922 529.052 100.238 529.568 102.557C531.629 100.238 530.341 97.6615 531.372 95.8577C533.691 97.1461 534.206 99.4653 534.721 102.3C535.237 101.011 535.752 100.238 536.268 98.4346C536.525 102.815 536.783 106.423 537.041 111.061C538.071 104.877 537.041 99.723 539.617 94.3116C539.617 100.754 539.36 106.165 539.102 112.349C540.906 104.104 541.163 103.331 543.483 101.269C544.513 102.557 542.967 104.877 545.286 106.423ZM635.991 128.841C636.248 126.007 636.506 122.914 635.475 119.822C633.414 119.822 631.352 119.565 629.291 119.565C614.345 119.822 599.4 119.822 584.454 118.534C583.166 118.534 581.877 118.534 580.589 118.276C578.012 117.761 576.981 116.472 576.981 113.638C576.724 105.65 576.466 97.4038 576.466 89.4157C576.466 75.2431 576.466 61.0706 576.724 46.6404C576.724 43.0328 577.239 39.4252 577.754 35.8177C578.012 32.9832 578.785 32.4678 581.362 32.4678C584.712 32.4678 588.319 32.4678 591.669 32.4678C598.627 32.7255 605.326 32.9832 612.284 33.2409C618.211 33.4985 623.88 34.0139 629.806 34.2716C631.352 34.2716 632.641 34.0139 634.187 34.0139C635.475 29.118 635.733 18.0376 634.445 6.95724C633.672 6.69957 633.156 6.69957 632.641 6.69957C605.069 6.95724 577.497 7.4726 550.182 7.98798C549.925 7.98798 549.667 7.98798 549.667 8.24566C549.409 8.24566 549.409 8.50334 548.894 8.76103C548.894 9.53407 548.636 10.5648 548.636 11.5955C548.636 31.6948 548.894 52.0517 548.894 72.1509C549.152 78.593 549.409 85.2928 549.409 91.9925C549.667 108.484 549.409 124.718 547.863 141.21C547.606 146.621 547.606 151.775 547.863 157.186C549.152 157.702 549.925 157.959 550.955 157.959C556.109 158.217 561.263 158.475 566.416 158.475C570.282 158.475 574.147 158.217 578.012 158.475C587.804 158.99 597.854 158.732 607.903 159.505C614.603 160.021 621.56 159.505 628.26 159.505C629.549 159.505 630.837 159.763 632.125 159.505C634.702 159.505 635.733 158.475 635.991 155.898C635.991 155.125 635.733 154.352 635.733 153.579C635.475 145.333 635.218 137.087 635.991 128.841Z" fill="white"/>
<path d="M495.489 79.1085C495.747 83.2315 495.489 87.6121 495.232 91.735C494.974 99.2078 494.459 106.423 494.459 113.896C494.459 127.037 494.716 140.179 494.716 153.063C494.716 154.352 494.716 155.64 494.459 156.929C494.459 159.248 493.428 160.794 491.882 162.082C485.182 166.978 478.482 171.874 471.782 176.77C469.463 178.316 467.144 179.089 464.567 179.347C443.695 182.182 422.823 181.924 401.95 181.409C394.993 181.409 387.778 180.12 380.563 179.347C380.047 178.059 379.532 177.028 379.79 175.997C379.79 171.101 379.79 166.463 380.047 161.567C380.305 155.383 380.563 149.456 380.821 143.271C380.821 142.498 380.821 141.468 380.821 140.695C380.821 138.118 381.851 136.314 383.913 135.026C386.49 133.222 389.066 131.418 391.643 129.614C395.508 126.522 399.631 123.688 403.754 120.853C404.527 120.338 405.043 119.822 406.073 118.792C398.343 120.08 392.159 123.945 385.201 124.976C383.655 124.203 383.397 122.915 383.397 121.626C383.14 118.019 383.14 114.153 383.14 110.546C383.397 95.3426 383.655 80.397 384.17 65.1937C384.686 54.8864 384.17 44.5791 383.913 34.2718C383.913 32.2103 383.655 30.1489 383.14 28.0874C382.882 26.0259 383.655 24.2222 385.201 22.6761C385.974 21.903 386.747 21.13 387.778 20.6146C393.705 15.461 399.631 10.565 405.558 5.66902C408.393 3.0922 411.227 1.28841 415.35 1.28841C438.799 1.03073 462.248 0.515374 485.697 0C487.759 0 489.82 0 491.882 0.257679C493.943 0.515374 494.716 1.28841 494.716 3.60756C494.974 13.1418 494.974 22.6761 493.685 32.2103C493.685 34.2718 492.912 35.5602 491.109 36.8486C488.274 38.6524 485.44 40.7138 482.605 42.7753C478.482 45.6098 474.617 48.1866 470.752 51.0211C467.402 53.3403 463.794 54.1133 459.671 54.1133C455.291 53.8557 450.91 53.8557 446.53 53.598C445.499 53.598 444.21 53.8557 442.664 53.8557C442.407 55.1441 442.149 55.6594 442.149 56.4325C441.891 59.7824 441.634 62.8745 441.376 66.7398C442.922 66.4821 443.953 66.4821 444.983 65.9667C451.941 63.1322 458.898 60.2977 465.856 57.2055C467.917 56.4325 469.979 55.9171 472.04 55.1441C477.967 53.3403 483.894 51.2788 489.82 49.4751C491.366 49.2174 492.655 48.9597 493.943 48.702C495.489 50.2481 495.489 52.0519 495.232 53.598C494.716 62.1015 495.232 70.605 495.489 79.1085ZM393.189 22.6761C393.189 22.9337 393.189 23.9645 393.447 24.2222C393.705 24.4798 394.478 24.7375 394.735 24.4798C398.858 22.9337 402.724 20.6146 405.3 16.7494C405.3 16.7494 405.043 16.4917 405.043 16.234C404.785 16.234 404.527 15.7186 404.27 15.7186C399.889 17.007 396.539 19.8416 393.189 22.6761ZM387.52 28.0874C387.778 28.6028 388.036 28.6028 388.551 28.8604C388.551 28.6028 388.809 28.3451 389.066 27.8297C388.551 27.572 388.293 27.572 387.778 27.3144C387.778 27.572 387.263 28.0874 387.52 28.0874ZM394.22 132.191C393.705 132.449 392.932 132.964 393.962 133.995C397.57 132.191 401.435 130.387 404.27 126.522C401.177 127.295 397.57 129.099 394.22 132.191ZM392.416 171.617C397.828 169.04 403.239 166.978 407.619 161.567C401.95 163.371 395.766 167.494 392.416 171.617ZM405.816 94.3118C406.331 91.9927 408.135 90.4466 407.877 88.1274C407.877 80.1393 407.877 72.4088 407.619 64.4206C407.619 63.6476 407.619 62.6169 406.073 62.1015C405.3 64.163 404.27 66.4821 403.239 68.5436C402.466 68.5436 401.95 68.5436 401.177 68.5436C400.92 71.1204 400.662 73.4395 400.404 75.7587C400.147 75.7587 399.889 75.7587 399.631 75.7587C399.631 74.2126 399.374 72.4088 399.116 69.832C397.57 72.9242 396.539 74.9856 395.508 77.0471C394.735 73.4395 392.416 70.0897 392.159 66.2244C391.901 69.0589 391.643 71.8934 391.385 74.4703C390.355 74.9856 389.582 75.2433 389.066 75.501C387.005 80.397 389.582 84.7776 390.87 89.1582C390.87 89.4158 391.128 89.6735 391.128 89.4159C393.705 89.1582 392.159 91.735 393.705 92.508C393.962 90.9619 394.22 89.4159 394.478 87.3544C394.993 88.3851 395.508 88.9005 395.766 89.4159C396.539 89.1582 396.281 87.6121 397.828 87.8698C397.828 90.7043 397.57 93.2811 397.828 96.1156C397.828 96.8886 398.343 97.404 399.116 98.9501C399.889 96.1156 400.404 94.3118 401.177 91.9927C402.466 94.0541 400.92 96.1156 402.466 97.6617C403.239 95.6002 403.754 93.5388 404.527 90.9619C405.043 92.2504 405.3 93.0234 405.816 94.3118ZM490.593 107.969C491.109 91.4773 491.624 74.9856 491.366 58.7516C491.366 56.9478 491.366 54.8864 491.366 52.3096C489.047 53.3403 487.501 54.1133 485.697 54.6287C482.347 55.9171 479.255 57.2055 475.905 58.4939C472.298 59.7824 468.433 60.8131 464.825 62.1015C460.187 63.9053 455.291 65.9667 450.652 68.0282C447.303 69.3166 443.695 70.605 440.345 71.6358C438.284 72.4088 436.995 71.3781 436.995 69.3166C436.995 68.2859 437.253 66.9975 437.253 65.9667C438.026 60.04 438.541 54.1133 439.057 48.4443C439.314 44.8368 439.572 41.4869 439.83 37.8793C440.861 31.695 441.376 31.1796 447.56 30.9219C460.444 30.6642 473.329 30.6642 486.213 30.4065C487.501 30.4065 488.79 30.4065 489.82 30.1489C490.593 24.4798 490.851 7.47279 490.336 4.63829C490.078 4.38061 489.563 4.12293 489.305 4.12293C463.794 4.63829 438.541 5.15365 413.031 5.66902C412.773 5.66902 412.515 5.9267 412.515 5.9267C412.258 6.18438 412.258 6.18438 411.742 6.69975C411.742 9.53425 411.742 12.6265 411.742 15.7186C411.742 32.468 411.742 49.2174 411.742 65.9667C412 76.5317 412 87.0967 410.712 97.404C410.454 99.2078 410.712 101.012 410.712 103.073C412 103.073 413.031 103.073 413.804 102.815C422.05 100.754 430.553 98.1771 438.799 95.8579C445.757 94.0541 452.714 91.735 459.414 89.9312C463.537 88.9005 464.825 89.9312 464.825 94.3118C464.825 100.496 464.825 106.681 464.825 113.123C464.825 114.411 464.825 115.699 464.825 116.988C464.567 119.565 463.537 120.595 460.96 120.595C446.014 121.111 430.811 121.368 415.608 121.884C414.062 121.884 412.515 122.142 410.712 122.142C410.454 125.491 410.196 128.584 410.196 131.418C409.939 138.118 409.939 145.075 409.939 151.775C409.939 153.321 410.196 154.61 410.712 156.413H490.336C490.336 155.125 490.593 153.579 490.336 152.29C489.82 137.345 490.078 122.657 490.593 107.969ZM412.515 116.988C418.7 118.019 430.038 117.503 435.192 116.473C435.192 115.957 435.707 115.184 435.707 114.411C435.707 113.38 435.707 112.35 435.707 110.546C431.326 111.834 427.461 112.865 423.854 113.638C419.988 114.411 416.381 114.926 412.515 116.988ZM446.787 104.104C451.168 102.042 455.548 101.012 458.641 96.8886C456.064 96.1156 455.033 97.404 454.002 98.1771C452.456 98.9501 451.168 99.9808 449.879 100.754C448.849 101.527 447.303 102.042 446.787 104.104Z" fill="white"/>
<path d="M291.84 154.867C292.097 158.99 290.809 162.34 287.201 164.917C280.502 169.813 273.544 174.966 266.844 180.12C265.556 181.151 264.01 181.408 262.206 181.408C255.249 181.408 248.549 181.408 241.591 181.408C231.284 181.666 220.719 181.666 210.154 181.666C198.558 181.924 186.963 181.408 175.367 180.635C173.821 180.378 172.533 180.12 171.244 179.862C169.956 177.543 170.471 175.482 170.471 173.42C170.471 134.252 170.471 95.3424 170.729 56.1746C170.729 48.4441 170.729 40.7137 170.729 32.7255C170.729 31.4371 170.986 29.891 170.986 28.3449C170.986 26.2834 172.017 24.7373 173.821 23.1913C181.036 17.7799 187.993 12.1109 195.209 6.44189C196.755 5.15346 198.301 4.38042 200.62 4.38042C227.677 4.12274 254.991 3.60737 282.048 3.09201C284.624 3.09201 287.201 2.83433 289.52 3.60737C289.778 4.12274 290.293 4.38042 290.293 4.6381C290.551 13.3993 290.809 22.1605 291.066 30.664C291.066 31.4371 291.066 32.2101 291.066 32.9832C290.551 35.56 289.778 37.8792 287.201 39.1676C284.882 40.1983 283.078 41.7444 281.017 43.0328C274.833 46.6404 268.648 50.2479 262.464 54.1132C259.629 55.6592 256.795 56.4323 253.703 56.69C247.776 56.69 241.849 57.2054 235.922 56.4323C235.149 56.4323 234.119 56.69 232.83 56.69C232.573 75.7585 232.83 94.5693 233.861 113.896C239.272 114.411 244.426 114.669 249.58 114.926C260.66 115.184 271.74 115.442 282.821 115.699C284.367 115.699 285.655 115.442 287.201 115.442C289.778 115.442 291.324 116.472 291.324 119.049C291.582 123.43 292.097 127.81 291.582 132.191C291.324 137.86 291.582 143.529 291.582 149.456C291.582 151.259 291.84 153.063 291.84 154.867ZM256.537 50.7633C257.052 51.021 257.568 50.2479 258.598 49.4749C257.568 48.9595 257.052 48.1865 256.795 48.1865C256.279 48.1865 255.506 48.9595 255.249 49.4749C255.249 49.9902 256.022 50.7633 256.537 50.7633ZM262.464 46.3827C267.36 44.8366 271.483 42.0021 275.348 38.6522C270.452 39.1676 264.268 42.5174 261.948 45.6096C262.206 45.8673 262.464 46.3827 262.464 46.3827ZM178.717 25.7681C177.944 26.5411 176.913 27.0565 177.171 28.6026C177.428 29.6333 178.975 29.6333 180.521 28.3449C184.901 24.995 189.024 21.3875 193.147 17.7799C193.662 17.5222 193.662 16.7492 193.92 15.4608C192.374 16.2338 191.343 16.4915 190.57 17.0069C186.705 19.8414 182.582 22.9336 178.717 25.7681ZM184.644 168.524C188.509 165.432 191.859 163.113 194.951 160.536C194.951 160.021 194.693 159.763 194.693 159.505C193.92 159.763 192.889 159.763 192.116 160.278C189.797 161.567 186.447 165.432 184.644 168.524ZM197.012 106.423C197.012 102.3 197.012 98.4346 197.012 94.5693C197.012 90.9618 197.012 87.0965 196.497 83.489C196.239 79.6237 197.27 75.7585 195.724 71.8932H190.828C190.055 73.4393 188.509 73.9547 186.447 73.1817C186.19 70.3472 185.932 67.5127 185.674 64.4205H185.417C185.159 66.4819 184.901 68.5434 184.644 70.8625C184.128 70.3472 183.613 70.0895 183.098 69.8318C182.84 72.1509 182.84 74.2124 182.582 76.5315C182.582 76.7892 182.067 76.7892 181.809 77.0469C181.551 76.0162 181.551 74.9854 181.294 73.9547C180.778 74.2124 180.521 74.2124 180.005 74.4701C179.748 73.697 179.232 72.924 178.975 71.8932C177.944 73.1817 178.975 74.9854 177.428 76.0162C177.428 73.1817 177.171 70.6048 176.913 68.028C175.882 70.8625 175.109 73.4394 175.109 76.2739C174.852 84.262 174.852 92.5079 174.852 100.496C174.852 101.269 174.594 102.3 175.882 102.815C176.14 101.011 176.398 99.2076 176.655 96.3731C177.686 98.4346 178.202 99.723 178.975 101.269C179.232 99.723 179.49 98.1769 180.005 95.8577C180.521 98.6922 180.778 100.238 181.294 102.557C183.355 100.238 182.067 97.6615 183.098 95.8577C185.417 97.1461 185.932 99.4653 186.447 102.3C186.963 101.011 187.478 100.238 187.993 98.4346C188.251 102.815 188.509 106.423 188.767 111.061C189.797 104.877 188.767 99.723 191.343 94.3116C191.343 100.754 191.086 106.165 190.828 112.349C192.632 104.104 192.889 103.331 195.209 101.269C196.239 102.557 194.693 104.877 197.012 106.423ZM287.717 128.841C287.974 126.007 288.232 122.914 287.201 119.822C285.14 119.822 283.078 119.565 281.017 119.565C266.071 119.822 251.126 119.822 236.18 118.534C234.892 118.534 233.603 118.534 232.315 118.276C229.738 117.761 228.707 116.472 228.707 113.638C228.45 105.65 228.192 97.4038 228.192 89.4157C228.192 75.2431 228.192 61.0706 228.45 46.6404C228.45 43.0328 228.965 39.4252 229.48 35.8177C229.738 32.9832 230.511 32.4678 233.088 32.4678C236.438 32.4678 240.045 32.4678 243.395 32.4678C250.353 32.7255 257.052 32.9832 264.01 33.2409C269.937 33.4985 275.606 34.0139 281.532 34.2716C283.078 34.2716 284.367 34.0139 285.913 34.0139C287.201 29.118 287.459 18.0376 286.171 6.95724C285.397 6.69957 284.882 6.69957 284.367 6.69957C256.795 6.95724 229.223 7.4726 201.908 7.98798C201.651 7.98798 201.393 7.98798 201.393 8.24566C201.135 8.24566 201.135 8.50334 200.62 8.76103C200.62 9.53407 200.362 10.5648 200.362 11.5955C200.362 31.6948 200.62 52.0517 200.62 72.1509C200.878 78.593 201.135 85.2928 201.135 91.9925C201.393 108.484 201.135 124.718 199.589 141.21C199.332 146.621 199.332 151.775 199.589 157.186C200.878 157.702 201.651 157.959 202.681 157.959C207.835 158.217 212.989 158.475 218.142 158.475C222.008 158.475 225.873 158.217 229.738 158.475C239.53 158.99 249.58 158.732 259.629 159.505C266.329 160.021 273.286 159.505 279.986 159.505C281.275 159.505 282.563 159.763 283.851 159.505C286.428 159.505 287.459 158.475 287.717 155.898C287.717 155.125 287.459 154.352 287.459 153.579C287.201 145.333 286.944 137.087 287.717 128.841Z" fill="white"/>
<path d="M147.251 153.836C147.509 162.082 147.509 162.082 140.809 166.978C135.14 171.101 129.471 175.224 123.802 179.347C121.483 181.151 119.164 181.924 116.072 181.666C108.857 181.666 101.384 181.666 93.911 181.666C93.6533 181.666 93.1379 181.666 92.8802 181.666C88.7573 181.151 88.242 180.635 87.7266 176.512C87.7266 174.966 87.7266 173.162 87.7266 171.616C87.7266 170.07 87.7266 168.782 87.7266 167.493C86.1805 166.72 85.6651 167.236 84.8921 167.751C79.7384 171.101 74.8425 174.451 69.6888 178.058C67.885 179.347 65.8236 179.862 63.5044 179.604C60.4122 179.604 57.5777 179.347 54.7432 179.089C52.9395 179.089 51.651 178.058 50.6203 176.512C49.3319 174.708 48.0435 173.162 46.4974 171.101C42.8898 173.935 39.7976 176.77 36.4478 179.604C35.417 180.377 34.1286 181.151 32.5825 181.151C23.8213 181.151 14.8024 181.151 6.04122 181.151C5.26818 181.151 4.49513 181.151 3.72208 181.151C2.17599 180.893 1.40294 180.12 1.40294 178.574C1.14526 177.028 1.14526 175.481 1.14526 174.193C0.62989 127.295 0.372208 80.6543 0.114526 34.0138C-0.143157 30.9216 0.114526 27.8294 0.114526 24.7372C-0.143157 22.6757 0.887573 21.1296 2.43367 19.8412C4.75281 18.2951 7.07195 16.4914 9.64878 14.6876C14.0294 11.3377 18.6677 8.24552 22.7906 4.89564C25.6251 2.83419 28.4596 1.80346 31.5518 1.80346C41.0861 1.54577 50.878 1.54577 60.4122 1.28809C63.7621 1.28809 65.8236 2.5765 67.112 5.92637C69.1735 11.3377 71.2349 16.749 73.2964 22.4181C74.0694 24.2218 74.8425 26.0256 75.8732 28.6024C76.6462 27.314 77.4193 26.541 77.9347 25.5103C79.2231 22.6757 81.0268 20.3566 83.6037 18.5528C90.0457 13.9145 96.4878 9.27625 102.93 4.63796C105.507 2.83419 108.341 2.06114 111.433 2.06114C120.968 1.80346 130.502 1.80346 140.036 1.80346C140.809 1.80346 141.582 1.80346 142.355 1.80346C143.901 2.06114 144.674 2.83419 144.932 4.38028C144.932 6.18405 145.19 7.98784 145.19 9.79161C145.447 28.0871 145.963 46.1249 146.221 64.1626C146.478 94.0538 146.994 123.945 147.251 153.836ZM21.2445 11.3377C15.3178 14.6876 9.90646 19.0682 4.75281 23.4488C5.52586 24.4795 6.29891 23.9641 6.81427 23.7065C11.7102 20.6143 16.3485 17.2644 21.2445 14.1722C21.5022 13.9145 21.7599 13.6569 21.7599 13.3992C22.2752 12.6261 22.5329 12.1108 21.2445 11.3377ZM8.61805 98.4344C9.64878 96.6306 8.36037 94.3115 10.4218 92.5077C10.9372 93.2808 11.4526 94.0538 11.9679 95.0845C12.2256 94.0538 12.4833 93.2808 12.741 92.25C14.0294 93.2808 12.2256 95.5999 14.5447 96.1153C15.3178 95.0845 15.8332 93.7961 16.6062 92.7654C16.8639 92.5077 17.3793 92.5077 17.6369 92.5077C19.4407 93.0231 17.8946 95.3422 20.2138 95.8576C20.4714 93.5384 20.7291 91.2193 20.9868 88.9002C21.2445 88.9002 21.5022 88.6425 21.5022 88.6425C22.0175 90.4463 22.2752 92.25 22.7906 94.0538C23.8213 94.0538 24.5944 93.7961 25.3674 93.7961C25.3674 85.0349 25.3674 76.5314 25.3674 67.7702C25.3674 66.9971 25.3674 66.2241 25.1097 65.7087C23.0483 63.3896 23.5636 60.2974 23.0483 57.4629C22.0175 59.782 23.0483 62.3588 21.7599 64.678C21.2445 63.9049 20.9868 63.3896 20.4714 62.6165C20.2138 64.1626 19.9561 65.1934 19.6984 66.2241C19.6984 66.2241 19.4407 66.2241 19.183 66.2241C19.183 63.9049 18.9254 61.3281 18.6677 59.009C18.6677 58.7513 18.41 58.7513 18.1523 58.4936C18.1523 59.5243 17.8946 60.2974 17.8946 61.0704C17.6369 61.0704 17.3793 61.0704 17.1216 61.0704C16.8639 59.782 16.6062 58.7513 16.3485 56.9475C15.8332 59.782 15.3178 61.8435 14.8024 64.1626C14.5447 66.2241 14.5447 68.2855 14.2871 70.6047C14.0294 70.6047 14.0294 70.6047 13.7717 70.6047C13.514 68.8009 13.514 66.9971 13.2563 64.4203C12.4833 65.9664 12.2256 66.4818 11.9679 67.2548C9.90646 66.9971 10.6795 63.6473 8.10268 63.905C7.845 65.451 7.58732 66.7395 7.07195 69.3163C5.78354 67.2548 6.04122 65.9664 5.78354 64.9357C5.78354 63.6473 5.78354 62.6165 5.78354 61.5858C5.52586 60.2974 5.52586 59.2667 5.26818 57.7206C3.72208 61.0704 3.4644 64.1626 3.4644 67.2548C3.72208 70.347 3.72208 73.6969 3.72208 76.7891C3.72208 83.4888 3.72208 90.4463 3.97976 97.146C3.97976 99.4651 3.97976 101.527 6.55659 102.815C6.81427 101.011 7.07195 99.4651 7.07195 97.9191C7.845 97.9191 8.36037 98.1767 8.61805 98.4344ZM11.7102 172.647C20.2138 168.524 24.079 165.432 25.3674 161.824C19.4407 163.886 13.514 168.524 11.7102 172.647ZM76.3886 160.794C76.9039 160.021 76.9039 159.247 75.6155 158.217C69.9465 160.794 66.0813 165.69 61.9583 170.586C66.0813 168.266 70.2042 165.947 73.8117 162.855C74.8425 162.34 75.6155 161.567 76.3886 160.794ZM109.63 168.009C111.691 166.72 113.753 165.432 115.041 162.855C114.526 162.597 114.01 162.34 113.753 162.34C109.63 165.432 105.507 168.266 101.384 171.359C101.126 171.616 101.641 172.389 101.641 172.905C101.384 172.905 101.126 172.647 100.868 172.647C100.868 172.647 100.611 172.647 100.353 172.905C100.611 172.905 100.611 172.647 100.868 172.647C101.126 172.905 101.384 172.905 101.641 172.905C104.218 171.359 107.053 169.555 109.63 168.009ZM142.871 157.959C142.871 155.125 142.871 153.063 142.871 151.259C142.613 139.148 142.355 127.037 142.098 115.184C141.84 80.1389 141.325 45.0941 141.067 10.0493C141.067 8.76089 140.809 7.47246 140.552 6.44175C134.109 5.92637 112.464 6.69943 108.341 7.73016C107.826 8.76089 107.568 9.53393 107.053 10.5647C100.868 25.2526 94.684 39.9405 88.4996 54.3707C87.9843 55.6591 87.2112 57.2052 86.4382 58.4936C86.1805 59.009 85.1498 59.782 84.3767 59.782C83.8614 59.782 82.8306 59.009 82.5729 58.2359C81.5422 56.6898 81.0269 54.8861 80.2538 53.0823C75.1002 38.9097 69.6888 24.4795 64.5352 10.0493C64.0198 8.76089 63.5044 7.47246 62.7314 5.92637C52.6818 5.15332 42.6321 6.18405 32.8402 5.92637C31.8095 5.92637 30.7787 6.18405 29.748 6.18405C29.4903 6.95711 29.2327 7.21479 29.2327 7.73016C29.4903 56.9475 29.748 106.423 30.2634 155.898C30.2634 156.413 30.5211 156.928 30.5211 157.701C33.3556 158.474 35.9324 158.217 38.7669 158.217C41.6014 158.217 44.1782 157.959 47.0127 157.959C49.8473 157.701 52.4241 158.217 55.5163 157.444C55.774 148.167 55.2586 139.148 55.774 130.387C56.0316 121.368 55.2586 112.349 56.0316 103.588C57.8354 103.073 58.0931 104.619 58.6085 105.392C65.8236 121.11 72.781 137.087 79.9961 152.805C80.5115 154.094 81.2845 155.382 81.7999 156.413H91.0765C91.8495 154.867 92.6226 153.063 93.3956 151.517C98.8069 137.86 104.476 123.945 109.887 110.288C110.918 107.969 112.206 105.65 113.237 103.588C113.753 102.815 114.526 102.3 115.299 101.269C116.072 102.3 116.845 103.073 116.845 103.846C117.102 104.876 117.102 105.907 117.102 106.938C117.36 122.657 117.618 138.375 118.133 154.094C118.133 155.382 118.391 156.928 118.649 158.99C126.637 158.474 134.625 159.247 142.871 157.959Z" fill="white"/>
</svg>
